1900 0 3 0           
10 Cubit 14.0 17 ACIS 22.0.2 Linux 24 Wed Feb 11 12:40:45 2015 
1 9.9999999999999995e-07 1e-10 
body $3 -1 -1 $-1 $4 $-1 $5 T -0.01 -0.01 -0.01 0.01 0.01 0.01 #
body $6 -1 -1 $-1 $7 $-1 $8 T -0.0001 -0.0001 -0.0001 0.0001 0.0001 0.0001 #
body $9 -1 -1 $-1 $10 $-1 $11 T -50 -50 -50 50 50 50 #
integer_attrib-name_attrib-gen-attrib $-1 -1 $12 $-1 $0 2 1 1 1 1 1 1 1 1 1 1 1 1 1 0 1 1 1 @8 CUBIT_ID 2 #
lump $13 -1 -1 $-1 $-1 $14 $0 T -0.01 -0.01 -0.01 0.01 0.01 0.01 #
transform $-1 -1 1 0 0 0 1 0 0 0 1 0 0 0 1 no_rotate no_reflect no_shear #
integer_attrib-name_attrib-gen-attrib $-1 -1 $15 $-1 $1 2 1 1 1 1 1 1 1 1 1 1 1 1 1 0 1 1 1 @8 CUBIT_ID 3 #
lump $16 -1 -1 $-1 $-1 $17 $1 T -0.0001 -0.0001 -0.0001 0.0001 0.0001 0.0001 #
transform $-1 -1 1 0 0 0 1 0 0 0 1 0 0 0 1 no_rotate no_reflect no_shear #
integer_attrib-name_attrib-gen-attrib $-1 -1 $18 $-1 $2 2 1 1 1 1 1 1 1 1 1 1 1 1 1 0 1 1 1 @8 CUBIT_ID 7 #
lump $19 -1 -1 $-1 $-1 $20 $2 T -50 -50 -50 50 50 50 #
transform $-1 -1 1 0 0 0 1 0 0 0 1 0 0 0 1 no_rotate no_reflect no_shear #
simple-snl-attrib $-1 -1 $-1 $3 $0 1 1 1 1 1 1 1 1 1 1 1 1 0 1 0 1 1 1 @17 NEW_SIMPLE_ATTRIB 1 @9 ENTITY_ID 0 3 2 -2147483648 -1 #
integer_attrib-name_attrib-gen-attrib $-1 -1 $21 $-1 $4 2 1 1 1 1 1 1 1 1 1 1 1 1 1 0 1 1 1 @8 CUBIT_ID 3 #
shell $-1 -1 -1 $-1 $22 $-1 $23 $-1 $4 T -0.01 -0.01 -0.01 0.01 0.01 0.01 #
simple-snl-attrib $-1 -1 $-1 $6 $1 1 1 1 1 1 1 1 1 1 1 1 1 0 1 0 1 1 1 @17 NEW_SIMPLE_ATTRIB 1 @9 ENTITY_ID 0 3 3 -2147483648 -1 #
integer_attrib-name_attrib-gen-attrib $-1 -1 $24 $-1 $7 2 1 1 1 1 1 1 1 1 1 1 1 1 1 0 1 1 1 @8 CUBIT_ID 4 #
shell $-1 -1 -1 $-1 $-1 $-1 $25 $-1 $7 T -0.0001 -0.0001 -0.0001 0.0001 0.0001 0.0001 #
simple-snl-attrib $-1 -1 $-1 $9 $2 1 1 1 1 1 1 1 1 1 1 1 1 0 1 0 1 1 1 @17 NEW_SIMPLE_ATTRIB 1 @9 ENTITY_ID 0 3 7 -2147483648 -1 #
integer_attrib-name_attrib-gen-attrib $-1 -1 $26 $-1 $10 2 1 1 1 1 1 1 1 1 1 1 1 1 1 0 1 1 1 @8 CUBIT_ID 10 #
shell $-1 -1 -1 $-1 $27 $-1 $28 $-1 $10 T -50 -50 -50 50 50 50 #
simple-snl-attrib $-1 -1 $29 $13 $4 1 1 1 1 1 1 1 1 1 1 1 1 0 1 0 1 1 1 @17 NEW_SIMPLE_ATTRIB 1 @9 ENTITY_ID 0 3 3 -2147483648 -1 #
shell $-1 -1 -1 $-1 $-1 $-1 $30 $-1 $4 T -0.0001 -0.0001 -0.0001 0.0001 0.0001 0.0001 #
face $31 -1 -1 $-1 $-1 $-1 $14 $-1 $32 forward single T -0.01 -0.01 -0.01 0.01 0.01 0.01 F #
simple-snl-attrib $-1 -1 $33 $16 $7 1 1 1 1 1 1 1 1 1 1 1 1 0 1 0 1 1 1 @17 NEW_SIMPLE_ATTRIB 1 @9 ENTITY_ID 0 3 4 -2147483648 -1 #
face $34 -1 -1 $-1 $-1 $-1 $17 $-1 $35 forward single T -0.0001 -0.0001 -0.0001 0.0001 0.0001 0.0001 F #
simple-snl-attrib $-1 -1 $36 $19 $10 1 1 1 1 1 1 1 1 1 1 1 1 0 1 0 1 1 1 @17 NEW_SIMPLE_ATTRIB 1 @9 ENTITY_ID 0 3 10 -2147483648 -1 #
shell $-1 -1 -1 $-1 $-1 $-1 $37 $-1 $10 T -0.01 -0.01 -0.01 0.01 0.01 0.01 #
face $38 -1 -1 $-1 $39 $40 $20 $-1 $41 forward single T -50 -50 50 50 50 50 F #
simple-snl-attrib $-1 -1 $-1 $21 $4 1 1 1 1 1 1 1 1 1 1 1 1 0 1 0 1 1 1 @17 NEW_SIMPLE_ATTRIB 2 @5 GROUP @14 mat_1_rho_0.01 0 7 1 8 1573832528 0 0 0 0 #
face $42 -1 -1 $-1 $-1 $-1 $22 $-1 $43 reversed single T -0.0001 -0.0001 -0.0001 0.0001 0.0001 0.0001 F #
integer_attrib-name_attrib-gen-attrib $-1 -1 $44 $-1 $23 2 1 1 1 1 1 1 1 1 1 1 1 1 1 0 1 1 1 @8 CUBIT_ID 2 #
sphere-surface $-1 -1 -1 $-1 0 0 0 0.01 1 0 0 0 0 1 forward_v I I I I #
simple-snl-attrib $-1 -1 $-1 $24 $7 1 1 1 1 1 1 1 1 1 1 1 1 0 1 0 1 1 1 @17 NEW_SIMPLE_ATTRIB 2 @5 GROUP @14 mat_1_rho_0.01 0 7 1 8 1573832528 1 0 0 0 #
integer_attrib-name_attrib-gen-attrib $-1 -1 $45 $-1 $25 2 1 1 1 1 1 1 1 1 1 1 1 1 1 0 1 1 1 @8 CUBIT_ID 3 #
sphere-surface $-1 -1 -1 $-1 0 0 0 0.0001 1 0 0 0 0 1 forward_v I I I I #
simple-snl-attrib $-1 -1 $-1 $26 $10 1 1 1 1 1 1 1 1 1 1 1 1 0 1 0 1 1 1 @17 NEW_SIMPLE_ATTRIB 2 @5 GROUP @16 termination.cell 0 7 1 7 1707068826 0 0 0 0 #
face $46 -1 -1 $-1 $-1 $-1 $27 $-1 $47 reversed single T -0.01 -0.01 -0.01 0.01 0.01 0.01 F #
integer_attrib-name_attrib-gen-attrib $-1 -1 $48 $-1 $28 2 1 1 1 1 1 1 1 1 1 1 1 1 1 0 1 1 1 @8 CUBIT_ID 8 #
face $49 -1 -1 $-1 $50 $51 $20 $-1 $52 reversed single T -50 -50 -50 50 50 -50 F #
loop $-1 -1 -1 $-1 $-1 $53 $28 T -50 -50 50 50 50 50 unknown #
plane-surface $-1 -1 -1 $-1 0 0 50 0 0 1 1 0 0 forward_v I I I I #
integer_attrib-name_attrib-gen-attrib $-1 -1 $54 $-1 $30 2 1 1 1 1 1 1 1 1 1 1 1 1 1 0 1 1 1 @8 CUBIT_ID 3 #
sphere-surface $-1 -1 -1 $-1 0 0 0 0.0001 1 0 0 0 0 1 forward_v I I I I #
simple-snl-attrib $-1 -1 $55 $31 $23 1 1 1 1 1 1 1 1 1 1 1 1 0 1 0 1 1 1 @17 NEW_SIMPLE_ATTRIB 1 @9 UNIQUE_ID 0 1 1973330552 #
simple-snl-attrib $-1 -1 $56 $34 $25 1 1 1 1 1 1 1 1 1 1 1 1 0 1 0 1 1 1 @17 NEW_SIMPLE_ATTRIB 1 @9 UNIQUE_ID 0 1 2142219245 #
integer_attrib-name_attrib-gen-attrib $-1 -1 $57 $-1 $37 2 1 1 1 1 1 1 1 1 1 1 1 1 1 0 1 1 1 @8 CUBIT_ID 2 #
sphere-surface $-1 -1 -1 $-1 0 0 0 0.01 1 0 0 0 0 1 forward_v I I I I #
simple-snl-attrib $-1 -1 $-1 $38 $28 1 1 1 1 1 1 1 1 1 1 1 1 0 1 0 1 1 1 @17 NEW_SIMPLE_ATTRIB 1 @9 ENTITY_ID 0 3 8 -2147483648 -1 #
integer_attrib-name_attrib-gen-attrib $-1 -1 $58 $-1 $39 2 1 1 1 1 1 1 1 1 1 1 1 1 1 0 1 1 1 @8 CUBIT_ID 9 #
face $59 -1 -1 $-1 $60 $61 $20 $-1 $62 reversed single T -50 -50 -50 50 -50 50 F #
loop $-1 -1 -1 $-1 $-1 $63 $39 T -50 -50 -50 50 50 -50 unknown #
plane-surface $-1 -1 -1 $-1 0 0 -50 0 0 1 1 0 0 forward_v I I I I #
coedge $-1 -1 -1 $-1 $64 $65 $66 $67 forward $40 $-1 #
simple-snl-attrib $-1 -1 $68 $42 $30 1 1 1 1 1 1 1 1 1 1 1 1 0 1 0 1 1 1 @17 NEW_SIMPLE_ATTRIB 1 @9 UNIQUE_ID 0 1 2142219245 #
simple-snl-attrib $-1 -1 $69 $44 $23 1 1 1 1 1 1 1 1 1 1 1 1 0 1 0 1 1 1 @17 NEW_SIMPLE_ATTRIB 1 @9 ENTITY_ID 0 3 2 -2147483648 -1 #
simple-snl-attrib $-1 -1 $70 $45 $25 1 1 1 1 1 1 1 1 1 1 1 1 0 1 0 1 1 1 @17 NEW_SIMPLE_ATTRIB 1 @9 ENTITY_ID 0 3 3 -2147483648 -1 #
simple-snl-attrib $-1 -1 $71 $46 $37 1 1 1 1 1 1 1 1 1 1 1 1 0 1 0 1 1 1 @17 NEW_SIMPLE_ATTRIB 1 @9 UNIQUE_ID 0 1 1973330552 #
simple-snl-attrib $-1 -1 $-1 $49 $39 1 1 1 1 1 1 1 1 1 1 1 1 0 1 0 1 1 1 @17 NEW_SIMPLE_ATTRIB 1 @9 ENTITY_ID 0 3 9 -2147483648 -1 #
integer_attrib-name_attrib-gen-attrib $-1 -1 $72 $-1 $50 2 1 1 1 1 1 1 1 1 1 1 1 1 1 0 1 1 1 @8 CUBIT_ID 10 #
face $73 -1 -1 $-1 $74 $75 $20 $-1 $76 reversed single T -50 -50 -50 -50 50 50 F #
loop $-1 -1 -1 $-1 $-1 $77 $50 T -50 -50 -50 50 -50 50 unknown #
plane-surface $-1 -1 -1 $-1 0 -50 0 0 1 -0 -0 0 1 forward_v I I I I #
coedge $-1 -1 -1 $-1 $78 $79 $80 $81 forward $51 $-1 #
coedge $-1 -1 -1 $-1 $82 $53 $83 $84 forward $40 $-1 #
coedge $-1 -1 -1 $-1 $53 $82 $85 $86 forward $40 $-1 #
coedge $-1 -1 -1 $-1 $87 $88 $53 $67 reversed $89 $-1 #
edge $90 -1 -1 $-1 $91 -50 $92 50 $66 $93 forward @7 unknown T 50 -50 50 50 50 50 #
simple-snl-attrib $-1 -1 $94 $54 $30 1 1 1 1 1 1 1 1 1 1 1 1 0 1 0 1 1 1 @17 NEW_SIMPLE_ATTRIB 1 @9 ENTITY_ID 0 3 3 -2147483648 -1 #
simple-snl-attrib $-1 -1 $95 $55 $23 1 1 1 1 1 1 1 1 1 1 1 1 0 1 0 1 1 1 @17 NEW_SIMPLE_ATTRIB 3 @5 GROUP @26 estimator_1.surface.flux.e @29 estimator_2.surface.current.e 0 11 2 9 10 1412263357 1596915264 0 0 0 0 0 0 #
simple-snl-attrib $-1 -1 $96 $56 $25 1 1 1 1 1 1 1 1 1 1 1 1 0 1 0 1 1 1 @17 NEW_SIMPLE_ATTRIB 3 @5 GROUP @26 estimator_1.surface.flux.e @29 estimator_2.surface.current.e 0 11 2 9 10 1412263357 1596915264 1 1 0 0 0 0 #
simple-snl-attrib $-1 -1 $97 $57 $37 1 1 1 1 1 1 1 1 1 1 1 1 0 1 0 1 1 1 @17 NEW_SIMPLE_ATTRIB 1 @9 ENTITY_ID 0 3 2 -2147483648 -1 #
simple-snl-attrib $-1 -1 $-1 $59 $50 1 1 1 1 1 1 1 1 1 1 1 1 0 1 0 1 1 1 @17 NEW_SIMPLE_ATTRIB 1 @9 ENTITY_ID 0 3 10 -2147483648 -1 #
integer_attrib-name_attrib-gen-attrib $-1 -1 $98 $-1 $60 2 1 1 1 1 1 1 1 1 1 1 1 1 1 0 1 1 1 @8 CUBIT_ID 11 #
face $99 -1 -1 $-1 $100 $101 $20 $-1 $102 reversed single T -50 50 -50 50 50 50 F #
loop $-1 -1 -1 $-1 $-1 $103 $60 T -50 -50 -50 -50 50 50 unknown #
plane-surface $-1 -1 -1 $-1 -50 0 0 1 0 0 0 0 -1 forward_v I I I I #
coedge $-1 -1 -1 $-1 $104 $85 $105 $106 forward $61 $-1 #
coedge $-1 -1 -1 $-1 $107 $63 $104 $108 forward $51 $-1 #
coedge $-1 -1 -1 $-1 $63 $107 $109 $110 forward $51 $-1 #
coedge $-1 -1 -1 $-1 $88 $87 $63 $81 reversed $89 $-1 #
edge $111 -1 -1 $-1 $112 -50 $113 50 $80 $114 forward @7 unknown T 50 -50 -50 50 50 -50 #
coedge $-1 -1 -1 $-1 $65 $64 $115 $116 forward $40 $-1 #
coedge $-1 -1 -1 $-1 $117 $118 $64 $84 reversed $101 $-1 #
edge $119 -1 -1 $-1 $92 -50 $120 50 $83 $121 forward @7 unknown T -50 50 50 50 50 50 #
coedge $-1 -1 -1 $-1 $77 $122 $65 $86 reversed $61 $-1 #
edge $123 -1 -1 $-1 $124 -50 $91 50 $85 $125 forward @7 unknown T -50 -50 50 50 -50 50 #
coedge $-1 -1 -1 $-1 $80 $66 $122 $126 forward $89 $-1 #
coedge $-1 -1 -1 $-1 $66 $80 $117 $127 reversed $89 $-1 #
loop $-1 -1 -1 $-1 $-1 $87 $100 T 50 -50 -50 50 50 50 unknown #
integer_attrib-name_attrib-gen-attrib $-1 -1 $128 $-1 $67 2 1 1 1 1 1 1 1 1 1 1 1 1 1 0 1 1 1 @8 CUBIT_ID 1 #
vertex $129 -1 -1 $-1 $67 $130 #
vertex $131 -1 -1 $-1 $67 $132 #
straight-curve $-1 -1 -1 $-1 50 0 50 0 1 0 I I #
simple-snl-attrib $-1 -1 $133 $68 $30 1 1 1 1 1 1 1 1 1 1 1 1 0 1 0 1 1 1 @17 NEW_SIMPLE_ATTRIB 3 @5 GROUP @26 estimator_1.surface.flux.e @29 estimator_2.surface.current.e 0 11 2 9 10 1412263357 1596915264 1 1 0 0 0 0 #
simple-snl-attrib $-1 -1 $-1 $69 $23 1 1 1 1 1 1 1 1 1 1 1 1 0 1 0 1 1 1 @17 NEW_SIMPLE_ATTRIB 1 @13 MERGE_PARTNER 0 4 1973330552 1 1 1 #
simple-snl-attrib $-1 -1 $-1 $70 $25 1 1 1 1 1 1 1 1 1 1 1 1 0 1 0 1 1 1 @17 NEW_SIMPLE_ATTRIB 1 @13 MERGE_PARTNER 0 4 2142219245 -1 4 0 #
simple-snl-attrib $-1 -1 $134 $71 $37 1 1 1 1 1 1 1 1 1 1 1 1 0 1 0 1 1 1 @17 NEW_SIMPLE_ATTRIB 3 @5 GROUP @26 estimator_1.surface.flux.e @29 estimator_2.surface.current.e 0 11 2 9 10 1412263357 1596915264 0 0 0 0 0 0 #
simple-snl-attrib $-1 -1 $-1 $73 $60 1 1 1 1 1 1 1 1 1 1 1 1 0 1 0 1 1 1 @17 NEW_SIMPLE_ATTRIB 1 @9 ENTITY_ID 0 3 11 -2147483648 -1 #
integer_attrib-name_attrib-gen-attrib $-1 -1 $135 $-1 $74 2 1 1 1 1 1 1 1 1 1 1 1 1 1 0 1 1 1 @8 CUBIT_ID 12 #
face $136 -1 -1 $-1 $-1 $89 $20 $-1 $137 reversed single T 50 -50 -50 50 50 50 F #
loop $-1 -1 -1 $-1 $-1 $117 $74 T -50 50 -50 50 50 50 unknown #
plane-surface $-1 -1 -1 $-1 0 50 0 0 -1 0 0 0 -1 forward_v I I I I #
coedge $-1 -1 -1 $-1 $138 $115 $118 $139 forward $75 $-1 #
coedge $-1 -1 -1 $-1 $122 $77 $78 $108 reversed $61 $-1 #
coedge $-1 -1 -1 $-1 $115 $138 $77 $106 reversed $75 $-1 #
edge $140 -1 -1 $-1 $124 -50 $141 50 $105 $142 forward @7 unknown T -50 -50 -50 -50 -50 50 #
coedge $-1 -1 -1 $-1 $79 $78 $138 $143 forward $51 $-1 #
edge $144 -1 -1 $-1 $113 -50 $141 50 $104 $145 forward @7 unknown T -50 -50 -50 50 -50 -50 #
coedge $-1 -1 -1 $-1 $118 $117 $79 $110 reversed $101 $-1 #
edge $146 -1 -1 $-1 $147 -50 $112 50 $109 $148 forward @7 unknown T -50 50 -50 50 50 -50 #
integer_attrib-name_attrib-gen-attrib $-1 -1 $149 $-1 $81 2 1 1 1 1 1 1 1 1 1 1 1 1 1 0 1 1 1 @8 CUBIT_ID 5 #
vertex $150 -1 -1 $-1 $81 $151 #
vertex $152 -1 -1 $-1 $126 $153 #
straight-curve $-1 -1 -1 $-1 50 0 -50 0 -1 0 I I #
coedge $-1 -1 -1 $-1 $103 $105 $82 $116 reversed $75 $-1 #
edge $154 -1 -1 $-1 $120 -50 $124 50 $115 $155 forward @7 unknown T -50 -50 50 -50 50 50 #
coedge $-1 -1 -1 $-1 $109 $83 $88 $127 forward $101 $-1 #
coedge $-1 -1 -1 $-1 $83 $109 $103 $139 reversed $101 $-1 #
integer_attrib-name_attrib-gen-attrib $-1 -1 $156 $-1 $84 2 1 1 1 1 1 1 1 1 1 1 1 1 1 0 1 1 1 @8 CUBIT_ID 2 #
vertex $157 -1 -1 $-1 $84 $158 #
straight-curve $-1 -1 -1 $-1 0 50 50 -1 0 0 I I #
coedge $-1 -1 -1 $-1 $85 $104 $87 $126 reversed $61 $-1 #
integer_attrib-name_attrib-gen-attrib $-1 -1 $159 $-1 $86 2 1 1 1 1 1 1 1 1 1 1 1 1 1 0 1 1 1 @8 CUBIT_ID 4 #
vertex $160 -1 -1 $-1 $116 $161 #
straight-curve $-1 -1 -1 $-1 0 -50 50 1 0 0 I I #
edge $162 -1 -1 $-1 $91 -50 $113 50 $87 $163 forward @7 unknown T 50 -50 -50 50 -50 50 #
edge $164 -1 -1 $-1 $92 -50 $112 50 $88 $165 forward @7 unknown T 50 50 -50 50 50 50 #
simple-snl-attrib $-1 -1 $-1 $90 $67 1 1 1 1 1 1 1 1 1 1 1 1 0 1 0 1 1 1 @17 NEW_SIMPLE_ATTRIB 1 @9 ENTITY_ID 0 3 1 -2147483648 -1 #
integer_attrib-name_attrib-gen-attrib $-1 -1 $166 $-1 $91 2 1 1 1 1 1 1 1 1 1 1 1 1 1 0 1 1 1 @8 CUBIT_ID 1 #
point $-1 -1 -1 $-1 50 -50 50 #
integer_attrib-name_attrib-gen-attrib $-1 -1 $167 $-1 $92 2 1 1 1 1 1 1 1 1 1 1 1 1 1 0 1 1 1 @8 CUBIT_ID 2 #
point $-1 -1 -1 $-1 50 50 50 #
simple-snl-attrib $-1 -1 $-1 $94 $30 1 1 1 1 1 1 1 1 1 1 1 1 0 1 0 1 1 1 @17 NEW_SIMPLE_ATTRIB 1 @13 MERGE_PARTNER 0 4 2142219245 1 3 1 #
simple-snl-attrib $-1 -1 $-1 $97 $37 1 1 1 1 1 1 1 1 1 1 1 1 0 1 0 1 1 1 @17 NEW_SIMPLE_ATTRIB 1 @13 MERGE_PARTNER 0 4 1973330552 -1 15 0 #
simple-snl-attrib $-1 -1 $-1 $99 $74 1 1 1 1 1 1 1 1 1 1 1 1 0 1 0 1 1 1 @17 NEW_SIMPLE_ATTRIB 1 @9 ENTITY_ID 0 3 12 -2147483648 -1 #
integer_attrib-name_attrib-gen-attrib $-1 -1 $168 $-1 $100 2 1 1 1 1 1 1 1 1 1 1 1 1 1 0 1 1 1 @8 CUBIT_ID 13 #
plane-surface $-1 -1 -1 $-1 50 0 0 -1 0 0 0 -0 1 forward_v I I I I #
coedge $-1 -1 -1 $-1 $105 $103 $107 $143 reversed $75 $-1 #
edge $169 -1 -1 $-1 $120 -50 $147 50 $118 $170 forward @7 unknown T -50 50 -50 -50 50 50 #
integer_attrib-name_attrib-gen-attrib $-1 -1 $171 $-1 $106 2 1 1 1 1 1 1 1 1 1 1 1 1 1 0 1 1 1 @8 CUBIT_ID 9 #
vertex $172 -1 -1 $-1 $143 $173 #
straight-curve $-1 -1 -1 $-1 -50 -50 0 0 0 -1 I I #
edge $174 -1 -1 $-1 $141 -50 $147 50 $138 $175 forward @7 unknown T -50 -50 -50 -50 50 -50 #
integer_attrib-name_attrib-gen-attrib $-1 -1 $176 $-1 $108 2 1 1 1 1 1 1 1 1 1 1 1 1 1 0 1 1 1 @8 CUBIT_ID 6 #
straight-curve $-1 -1 -1 $-1 0 -50 -50 -1 0 0 I I #
integer_attrib-name_attrib-gen-attrib $-1 -1 $177 $-1 $110 2 1 1 1 1 1 1 1 1 1 1 1 1 1 0 1 1 1 @8 CUBIT_ID 8 #
vertex $178 -1 -1 $-1 $110 $179 #
straight-curve $-1 -1 -1 $-1 0 50 -50 1 0 0 I I #
simple-snl-attrib $-1 -1 $-1 $111 $81 1 1 1 1 1 1 1 1 1 1 1 1 0 1 0 1 1 1 @17 NEW_SIMPLE_ATTRIB 1 @9 ENTITY_ID 0 3 5 -2147483648 -1 #
integer_attrib-name_attrib-gen-attrib $-1 -1 $180 $-1 $112 2 1 1 1 1 1 1 1 1 1 1 1 1 1 0 1 1 1 @8 CUBIT_ID 5 #
point $-1 -1 -1 $-1 50 50 -50 #
integer_attrib-name_attrib-gen-attrib $-1 -1 $181 $-1 $113 2 1 1 1 1 1 1 1 1 1 1 1 1 1 0 1 1 1 @8 CUBIT_ID 6 #
point $-1 -1 -1 $-1 50 -50 -50 #
integer_attrib-name_attrib-gen-attrib $-1 -1 $182 $-1 $116 2 1 1 1 1 1 1 1 1 1 1 1 1 1 0 1 1 1 @8 CUBIT_ID 3 #
straight-curve $-1 -1 -1 $-1 -50 0 50 0 -1 0 I I #
simple-snl-attrib $-1 -1 $-1 $119 $84 1 1 1 1 1 1 1 1 1 1 1 1 0 1 0 1 1 1 @17 NEW_SIMPLE_ATTRIB 1 @9 ENTITY_ID 0 3 2 -2147483648 -1 #
integer_attrib-name_attrib-gen-attrib $-1 -1 $183 $-1 $120 2 1 1 1 1 1 1 1 1 1 1 1 1 1 0 1 1 1 @8 CUBIT_ID 3 #
point $-1 -1 -1 $-1 -50 50 50 #
simple-snl-attrib $-1 -1 $-1 $123 $86 1 1 1 1 1 1 1 1 1 1 1 1 0 1 0 1 1 1 @17 NEW_SIMPLE_ATTRIB 1 @9 ENTITY_ID 0 3 4 -2147483648 -1 #
integer_attrib-name_attrib-gen-attrib $-1 -1 $184 $-1 $124 2 1 1 1 1 1 1 1 1 1 1 1 1 1 0 1 1 1 @8 CUBIT_ID 4 #
point $-1 -1 -1 $-1 -50 -50 50 #
integer_attrib-name_attrib-gen-attrib $-1 -1 $185 $-1 $126 2 1 1 1 1 1 1 1 1 1 1 1 1 1 0 1 1 1 @8 CUBIT_ID 10 #
straight-curve $-1 -1 -1 $-1 50 -50 0 0 0 -1 I I #
integer_attrib-name_attrib-gen-attrib $-1 -1 $186 $-1 $127 2 1 1 1 1 1 1 1 1 1 1 1 1 1 0 1 1 1 @8 CUBIT_ID 12 #
straight-curve $-1 -1 -1 $-1 50 50 0 0 0 -1 I I #
simple-snl-attrib $-1 -1 $-1 $129 $91 1 1 1 1 1 1 1 1 1 1 1 1 0 1 0 1 1 1 @17 NEW_SIMPLE_ATTRIB 1 @9 ENTITY_ID 0 3 1 -2147483648 -1 #
simple-snl-attrib $-1 -1 $-1 $131 $92 1 1 1 1 1 1 1 1 1 1 1 1 0 1 0 1 1 1 @17 NEW_SIMPLE_ATTRIB 1 @9 ENTITY_ID 0 3 2 -2147483648 -1 #
simple-snl-attrib $-1 -1 $-1 $136 $100 1 1 1 1 1 1 1 1 1 1 1 1 0 1 0 1 1 1 @17 NEW_SIMPLE_ATTRIB 1 @9 ENTITY_ID 0 3 13 -2147483648 -1 #
integer_attrib-name_attrib-gen-attrib $-1 -1 $187 $-1 $139 2 1 1 1 1 1 1 1 1 1 1 1 1 1 0 1 1 1 @8 CUBIT_ID 11 #
straight-curve $-1 -1 -1 $-1 -50 50 0 0 0 -1 I I #
simple-snl-attrib $-1 -1 $-1 $140 $106 1 1 1 1 1 1 1 1 1 1 1 1 0 1 0 1 1 1 @17 NEW_SIMPLE_ATTRIB 1 @9 ENTITY_ID 0 3 9 -2147483648 -1 #
integer_attrib-name_attrib-gen-attrib $-1 -1 $188 $-1 $141 2 1 1 1 1 1 1 1 1 1 1 1 1 1 0 1 1 1 @8 CUBIT_ID 7 #
point $-1 -1 -1 $-1 -50 -50 -50 #
integer_attrib-name_attrib-gen-attrib $-1 -1 $189 $-1 $143 2 1 1 1 1 1 1 1 1 1 1 1 1 1 0 1 1 1 @8 CUBIT_ID 7 #
straight-curve $-1 -1 -1 $-1 -50 0 -50 0 1 0 I I #
simple-snl-attrib $-1 -1 $-1 $144 $108 1 1 1 1 1 1 1 1 1 1 1 1 0 1 0 1 1 1 @17 NEW_SIMPLE_ATTRIB 1 @9 ENTITY_ID 0 3 6 -2147483648 -1 #
simple-snl-attrib $-1 -1 $-1 $146 $110 1 1 1 1 1 1 1 1 1 1 1 1 0 1 0 1 1 1 @17 NEW_SIMPLE_ATTRIB 1 @9 ENTITY_ID 0 3 8 -2147483648 -1 #
integer_attrib-name_attrib-gen-attrib $-1 -1 $190 $-1 $147 2 1 1 1 1 1 1 1 1 1 1 1 1 1 0 1 1 1 @8 CUBIT_ID 8 #
point $-1 -1 -1 $-1 -50 50 -50 #
simple-snl-attrib $-1 -1 $-1 $150 $112 1 1 1 1 1 1 1 1 1 1 1 1 0 1 0 1 1 1 @17 NEW_SIMPLE_ATTRIB 1 @9 ENTITY_ID 0 3 5 -2147483648 -1 #
simple-snl-attrib $-1 -1 $-1 $152 $113 1 1 1 1 1 1 1 1 1 1 1 1 0 1 0 1 1 1 @17 NEW_SIMPLE_ATTRIB 1 @9 ENTITY_ID 0 3 6 -2147483648 -1 #
simple-snl-attrib $-1 -1 $-1 $154 $116 1 1 1 1 1 1 1 1 1 1 1 1 0 1 0 1 1 1 @17 NEW_SIMPLE_ATTRIB 1 @9 ENTITY_ID 0 3 3 -2147483648 -1 #
simple-snl-attrib $-1 -1 $-1 $157 $120 1 1 1 1 1 1 1 1 1 1 1 1 0 1 0 1 1 1 @17 NEW_SIMPLE_ATTRIB 1 @9 ENTITY_ID 0 3 3 -2147483648 -1 #
simple-snl-attrib $-1 -1 $-1 $160 $124 1 1 1 1 1 1 1 1 1 1 1 1 0 1 0 1 1 1 @17 NEW_SIMPLE_ATTRIB 1 @9 ENTITY_ID 0 3 4 -2147483648 -1 #
simple-snl-attrib $-1 -1 $-1 $162 $126 1 1 1 1 1 1 1 1 1 1 1 1 0 1 0 1 1 1 @17 NEW_SIMPLE_ATTRIB 1 @9 ENTITY_ID 0 3 10 -2147483648 -1 #
simple-snl-attrib $-1 -1 $-1 $164 $127 1 1 1 1 1 1 1 1 1 1 1 1 0 1 0 1 1 1 @17 NEW_SIMPLE_ATTRIB 1 @9 ENTITY_ID 0 3 12 -2147483648 -1 #
simple-snl-attrib $-1 -1 $-1 $169 $139 1 1 1 1 1 1 1 1 1 1 1 1 0 1 0 1 1 1 @17 NEW_SIMPLE_ATTRIB 1 @9 ENTITY_ID 0 3 11 -2147483648 -1 #
simple-snl-attrib $-1 -1 $-1 $172 $141 1 1 1 1 1 1 1 1 1 1 1 1 0 1 0 1 1 1 @17 NEW_SIMPLE_ATTRIB 1 @9 ENTITY_ID 0 3 7 -2147483648 -1 #
simple-snl-attrib $-1 -1 $-1 $174 $143 1 1 1 1 1 1 1 1 1 1 1 1 0 1 0 1 1 1 @17 NEW_SIMPLE_ATTRIB 1 @9 ENTITY_ID 0 3 7 -2147483648 -1 #
simple-snl-attrib $-1 -1 $-1 $178 $147 1 1 1 1 1 1 1 1 1 1 1 1 0 1 0 1 1 1 @17 NEW_SIMPLE_ATTRIB 1 @9 ENTITY_ID 0 3 8 -2147483648 -1 #
End-of-ACIS-data 